<mxfile host="app.diagrams.net" agent="Mozilla/5.0 (Windows NT 10.0; Win64; x64) AppleWebKit/537.36 (KHTML, like Gecko) Chrome/140.0.0.0 Safari/537.36" version="28.2.3">
  <diagram name="Seite-1" id="-xpz5gQdDdrJERGbqi_M">
    <mxGraphModel dx="6201" dy="2272" grid="1" gridSize="10" guides="1" tooltips="1" connect="1" arrows="1" fold="1" page="1" pageScale="1" pageWidth="827" pageHeight="1169" math="0" shadow="0">
      <root>
        <mxCell id="0" />
        <mxCell id="1" parent="0" />
        <mxCell id="WHf_nLYhRJgDITaD4WBG-1" value="" style="rounded=0;whiteSpace=wrap;html=1;" parent="1" vertex="1">
          <mxGeometry x="40" y="270" width="120" height="280" as="geometry" />
        </mxCell>
        <mxCell id="WHf_nLYhRJgDITaD4WBG-5" value="Title" style="text;html=1;align=left;verticalAlign=middle;whiteSpace=wrap;rounded=0;" parent="1" vertex="1">
          <mxGeometry x="40" y="200" width="60" height="30" as="geometry" />
        </mxCell>
        <mxCell id="WHf_nLYhRJgDITaD4WBG-10" value="List" style="text;html=1;align=left;verticalAlign=middle;whiteSpace=wrap;rounded=0;" parent="1" vertex="1">
          <mxGeometry x="40" y="270" width="60" height="30" as="geometry" />
        </mxCell>
        <mxCell id="WHf_nLYhRJgDITaD4WBG-11" value="Card" style="rounded=1;whiteSpace=wrap;html=1;" parent="1" vertex="1">
          <mxGeometry x="50" y="310" width="100" height="30" as="geometry" />
        </mxCell>
        <mxCell id="WHf_nLYhRJgDITaD4WBG-12" value="Card" style="rounded=1;whiteSpace=wrap;html=1;" parent="1" vertex="1">
          <mxGeometry x="50" y="350" width="100" height="30" as="geometry" />
        </mxCell>
        <mxCell id="WHf_nLYhRJgDITaD4WBG-13" value="Card" style="rounded=1;whiteSpace=wrap;html=1;" parent="1" vertex="1">
          <mxGeometry x="50" y="390" width="100" height="30" as="geometry" />
        </mxCell>
        <mxCell id="WHf_nLYhRJgDITaD4WBG-17" value="Column" style="swimlane;whiteSpace=wrap;html=1;dashed=1;" parent="1" vertex="1">
          <mxGeometry x="10" y="170" width="200" height="400" as="geometry" />
        </mxCell>
        <mxCell id="WHf_nLYhRJgDITaD4WBG-20" value="" style="rounded=0;whiteSpace=wrap;html=1;" parent="1" vertex="1">
          <mxGeometry x="270" y="270" width="120" height="280" as="geometry" />
        </mxCell>
        <mxCell id="WHf_nLYhRJgDITaD4WBG-21" value="Search" style="rounded=1;whiteSpace=wrap;html=1;" parent="1" vertex="1">
          <mxGeometry x="270" y="230" width="120" height="30" as="geometry" />
        </mxCell>
        <mxCell id="WHf_nLYhRJgDITaD4WBG-22" value="Title" style="text;html=1;align=left;verticalAlign=middle;whiteSpace=wrap;rounded=0;" parent="1" vertex="1">
          <mxGeometry x="270" y="200" width="60" height="30" as="geometry" />
        </mxCell>
        <mxCell id="WHf_nLYhRJgDITaD4WBG-23" value="Action" style="rounded=1;whiteSpace=wrap;html=1;" parent="1" vertex="1">
          <mxGeometry x="330" y="205" width="60" height="20" as="geometry" />
        </mxCell>
        <mxCell id="WHf_nLYhRJgDITaD4WBG-24" value="List" style="text;html=1;align=left;verticalAlign=middle;whiteSpace=wrap;rounded=0;" parent="1" vertex="1">
          <mxGeometry x="270" y="270" width="60" height="30" as="geometry" />
        </mxCell>
        <mxCell id="WHf_nLYhRJgDITaD4WBG-25" value="Card" style="rounded=1;whiteSpace=wrap;html=1;" parent="1" vertex="1">
          <mxGeometry x="280" y="310" width="100" height="30" as="geometry" />
        </mxCell>
        <mxCell id="WHf_nLYhRJgDITaD4WBG-26" value="Card" style="rounded=1;whiteSpace=wrap;html=1;" parent="1" vertex="1">
          <mxGeometry x="280" y="350" width="100" height="30" as="geometry" />
        </mxCell>
        <mxCell id="WHf_nLYhRJgDITaD4WBG-27" value="Card" style="rounded=1;whiteSpace=wrap;html=1;" parent="1" vertex="1">
          <mxGeometry x="280" y="390" width="100" height="30" as="geometry" />
        </mxCell>
        <mxCell id="WHf_nLYhRJgDITaD4WBG-28" value="Column" style="swimlane;whiteSpace=wrap;html=1;dashed=1;" parent="1" vertex="1">
          <mxGeometry x="240" y="170" width="200" height="400" as="geometry" />
        </mxCell>
        <mxCell id="WHf_nLYhRJgDITaD4WBG-29" value="" style="rounded=0;whiteSpace=wrap;html=1;" parent="1" vertex="1">
          <mxGeometry x="500" y="270" width="120" height="280" as="geometry" />
        </mxCell>
        <mxCell id="WHf_nLYhRJgDITaD4WBG-30" value="Search" style="rounded=1;whiteSpace=wrap;html=1;" parent="1" vertex="1">
          <mxGeometry x="500" y="230" width="120" height="30" as="geometry" />
        </mxCell>
        <mxCell id="WHf_nLYhRJgDITaD4WBG-31" value="Title" style="text;html=1;align=left;verticalAlign=middle;whiteSpace=wrap;rounded=0;" parent="1" vertex="1">
          <mxGeometry x="500" y="200" width="60" height="30" as="geometry" />
        </mxCell>
        <mxCell id="WHf_nLYhRJgDITaD4WBG-32" value="Action" style="rounded=1;whiteSpace=wrap;html=1;" parent="1" vertex="1">
          <mxGeometry x="560" y="205" width="60" height="20" as="geometry" />
        </mxCell>
        <mxCell id="WHf_nLYhRJgDITaD4WBG-33" value="List" style="text;html=1;align=left;verticalAlign=middle;whiteSpace=wrap;rounded=0;" parent="1" vertex="1">
          <mxGeometry x="500" y="270" width="60" height="30" as="geometry" />
        </mxCell>
        <mxCell id="WHf_nLYhRJgDITaD4WBG-34" value="Card" style="rounded=1;whiteSpace=wrap;html=1;" parent="1" vertex="1">
          <mxGeometry x="510" y="310" width="100" height="30" as="geometry" />
        </mxCell>
        <mxCell id="WHf_nLYhRJgDITaD4WBG-35" value="Card" style="rounded=1;whiteSpace=wrap;html=1;" parent="1" vertex="1">
          <mxGeometry x="510" y="350" width="100" height="30" as="geometry" />
        </mxCell>
        <mxCell id="WHf_nLYhRJgDITaD4WBG-36" value="Card" style="rounded=1;whiteSpace=wrap;html=1;" parent="1" vertex="1">
          <mxGeometry x="510" y="390" width="100" height="30" as="geometry" />
        </mxCell>
        <mxCell id="WHf_nLYhRJgDITaD4WBG-37" value="Column" style="swimlane;whiteSpace=wrap;html=1;dashed=1;" parent="1" vertex="1">
          <mxGeometry x="470" y="170" width="200" height="400" as="geometry" />
        </mxCell>
        <mxCell id="WHf_nLYhRJgDITaD4WBG-38" value="Board" style="swimlane;whiteSpace=wrap;html=1;" parent="1" vertex="1">
          <mxGeometry x="-10" y="130" width="700" height="470" as="geometry" />
        </mxCell>
        <mxCell id="ysQQDH6iQywcjfbesKDz-1" value="C1: System Context Diagram" style="swimlane;whiteSpace=wrap;html=1;" parent="1" vertex="1">
          <mxGeometry x="-4100" y="-400" width="950" height="650" as="geometry" />
        </mxCell>
        <mxCell id="ysQQDH6iQywcjfbesKDz-12" value="" style="edgeStyle=orthogonalEdgeStyle;rounded=0;orthogonalLoop=1;jettySize=auto;html=1;entryX=0.5;entryY=0;entryDx=0;entryDy=0;entryPerimeter=0;" parent="ysQQDH6iQywcjfbesKDz-1" target="ysQQDH6iQywcjfbesKDz-11" edge="1">
          <mxGeometry relative="1" as="geometry">
            <mxPoint x="269.55" y="289" as="sourcePoint" />
            <mxPoint x="269.55" y="400" as="targetPoint" />
          </mxGeometry>
        </mxCell>
        <mxCell id="ysQQDH6iQywcjfbesKDz-13" value="Opens the Template Generator Plugin in the Compas Editor and&lt;div&gt;c&lt;span style=&quot;background-color: light-dark(#ffffff, var(--ge-dark-color, #121212)); color: light-dark(rgb(0, 0, 0), rgb(255, 255, 255));&quot;&gt;reates, views and edits DataTypes&lt;/span&gt;&lt;div&gt;&lt;br&gt;&lt;/div&gt;&lt;/div&gt;" style="edgeLabel;html=1;align=center;verticalAlign=middle;resizable=0;points=[];" parent="ysQQDH6iQywcjfbesKDz-12" vertex="1" connectable="0">
          <mxGeometry x="-0.3789" relative="1" as="geometry">
            <mxPoint y="10" as="offset" />
          </mxGeometry>
        </mxCell>
        <object placeholders="1" c4Name="Application User" c4Type="Person" c4Description="A user that configures DataTypes" label="&lt;font style=&quot;font-size: 16px&quot;&gt;&lt;b&gt;%c4Name%&lt;/b&gt;&lt;/font&gt;&lt;div&gt;[%c4Type%]&lt;/div&gt;&lt;br&gt;&lt;div&gt;&lt;font style=&quot;font-size: 11px&quot;&gt;&lt;font color=&quot;#cccccc&quot;&gt;%c4Description%&lt;/font&gt;&lt;/div&gt;" id="ysQQDH6iQywcjfbesKDz-9">
          <mxCell style="html=1;fontSize=11;dashed=0;whiteSpace=wrap;fillColor=#083F75;strokeColor=#06315C;fontColor=#ffffff;shape=mxgraph.c4.person2;align=center;metaEdit=1;points=[[0.5,0,0],[1,0.5,0],[1,0.75,0],[0.75,1,0],[0.5,1,0],[0.25,1,0],[0,0.75,0],[0,0.5,0]];resizable=0;" parent="ysQQDH6iQywcjfbesKDz-1" vertex="1">
            <mxGeometry x="170" y="99" width="200" height="180" as="geometry" />
          </mxCell>
        </object>
        <object placeholders="1" c4Name="Template Generator Plugin" c4Type="Software System" c4Description="Allows users to view, edit and create DataTypes (LNodeType, DOType, DAType, EnumType)." label="&lt;font style=&quot;font-size: 16px&quot;&gt;&lt;b&gt;%c4Name%&lt;/b&gt;&lt;/font&gt;&lt;div&gt;[%c4Type%]&lt;/div&gt;&lt;br&gt;&lt;div&gt;&lt;font style=&quot;font-size: 11px&quot;&gt;&lt;font color=&quot;#cccccc&quot;&gt;%c4Description%&lt;/font&gt;&lt;/div&gt;" id="ysQQDH6iQywcjfbesKDz-10">
          <mxCell style="rounded=1;whiteSpace=wrap;html=1;labelBackgroundColor=none;fillColor=#1061B0;fontColor=#ffffff;align=center;arcSize=10;strokeColor=#0D5091;metaEdit=1;resizable=0;points=[[0.25,0,0],[0.5,0,0],[0.75,0,0],[1,0.25,0],[1,0.5,0],[1,0.75,0],[0.75,1,0],[0.5,1,0],[0.25,1,0],[0,0.75,0],[0,0.5,0],[0,0.25,0]];" parent="ysQQDH6iQywcjfbesKDz-1" vertex="1">
            <mxGeometry x="680" y="390" width="240" height="120" as="geometry" />
          </mxCell>
        </object>
        <object placeholders="1" c4Name="Compas Editor" c4Type="Software System" c4Description="A plugin based editor system that lets the user edit SCL files using an event based api" label="&lt;font style=&quot;font-size: 16px&quot;&gt;&lt;b&gt;%c4Name%&lt;/b&gt;&lt;/font&gt;&lt;div&gt;[%c4Type%]&lt;/div&gt;&lt;br&gt;&lt;div&gt;&lt;font style=&quot;font-size: 11px&quot;&gt;&lt;font color=&quot;#cccccc&quot;&gt;%c4Description%&lt;/font&gt;&lt;/div&gt;" id="ysQQDH6iQywcjfbesKDz-11">
          <mxCell style="rounded=1;whiteSpace=wrap;html=1;labelBackgroundColor=none;fillColor=#8C8496;fontColor=#ffffff;align=center;arcSize=10;strokeColor=#736782;metaEdit=1;resizable=0;points=[[0.25,0,0],[0.5,0,0],[0.75,0,0],[1,0.25,0],[1,0.5,0],[1,0.75,0],[0.75,1,0],[0.5,1,0],[0.25,1,0],[0,0.75,0],[0,0.5,0],[0,0.25,0]];" parent="ysQQDH6iQywcjfbesKDz-1" vertex="1">
            <mxGeometry x="150" y="390" width="240" height="120" as="geometry" />
          </mxCell>
        </object>
        <mxCell id="ysQQDH6iQywcjfbesKDz-17" style="edgeStyle=orthogonalEdgeStyle;rounded=0;orthogonalLoop=1;jettySize=auto;html=1;entryX=0;entryY=0.5;entryDx=0;entryDy=0;entryPerimeter=0;dashed=1;dashPattern=12 12;" parent="ysQQDH6iQywcjfbesKDz-1" source="ysQQDH6iQywcjfbesKDz-11" target="ysQQDH6iQywcjfbesKDz-10" edge="1">
          <mxGeometry relative="1" as="geometry" />
        </mxCell>
        <mxCell id="ysQQDH6iQywcjfbesKDz-18" value="Loads the plugin and give&lt;div&gt;the plugin access to the virtual SCD&lt;/div&gt;&lt;div&gt;file via an API&lt;/div&gt;" style="edgeLabel;html=1;align=center;verticalAlign=middle;resizable=0;points=[];" parent="ysQQDH6iQywcjfbesKDz-17" vertex="1" connectable="0">
          <mxGeometry x="-0.1904" relative="1" as="geometry">
            <mxPoint x="13" as="offset" />
          </mxGeometry>
        </mxCell>
        <mxCell id="ysQQDH6iQywcjfbesKDz-28" value="C2: Container Diagram - Template Generator Plugin" style="swimlane;whiteSpace=wrap;html=1;fillColor=#f5f5f5;fontColor=#333333;strokeColor=#666666;" parent="1" vertex="1">
          <mxGeometry x="-3120" y="-400" width="1140" height="650" as="geometry" />
        </mxCell>
        <mxCell id="ysQQDH6iQywcjfbesKDz-29" value="" style="edgeStyle=orthogonalEdgeStyle;rounded=0;orthogonalLoop=1;jettySize=auto;html=1;entryX=-0.007;entryY=0.419;entryDx=0;entryDy=0;entryPerimeter=0;exitX=0.995;exitY=0.651;exitDx=0;exitDy=0;exitPerimeter=0;" parent="ysQQDH6iQywcjfbesKDz-28" source="ysQQDH6iQywcjfbesKDz-31" target="ysQQDH6iQywcjfbesKDz-76" edge="1">
          <mxGeometry relative="1" as="geometry">
            <mxPoint x="269.55" y="289" as="sourcePoint" />
            <mxPoint x="500" y="160" as="targetPoint" />
          </mxGeometry>
        </mxCell>
        <mxCell id="ysQQDH6iQywcjfbesKDz-30" value="Opens the Template Generator Plugin&lt;div&gt;in the Compas Editor and&lt;div&gt;c&lt;span style=&quot;background-color: light-dark(#ffffff, var(--ge-dark-color, #121212)); color: light-dark(rgb(0, 0, 0), rgb(255, 255, 255));&quot;&gt;reates, views and edits DataTypes&lt;/span&gt;&lt;div&gt;&lt;br&gt;&lt;/div&gt;&lt;/div&gt;&lt;/div&gt;" style="edgeLabel;html=1;align=center;verticalAlign=middle;resizable=0;points=[];" parent="ysQQDH6iQywcjfbesKDz-29" vertex="1" connectable="0">
          <mxGeometry x="-0.3789" relative="1" as="geometry">
            <mxPoint x="46" y="3" as="offset" />
          </mxGeometry>
        </mxCell>
        <object placeholders="1" c4Name="Application User" c4Type="Person" c4Description="A user that configures DataTypes" label="&lt;font style=&quot;font-size: 16px&quot;&gt;&lt;b&gt;%c4Name%&lt;/b&gt;&lt;/font&gt;&lt;div&gt;[%c4Type%]&lt;/div&gt;&lt;br&gt;&lt;div&gt;&lt;font style=&quot;font-size: 11px&quot;&gt;&lt;font color=&quot;#cccccc&quot;&gt;%c4Description%&lt;/font&gt;&lt;/div&gt;" id="ysQQDH6iQywcjfbesKDz-31">
          <mxCell style="html=1;fontSize=11;dashed=0;whiteSpace=wrap;fillColor=#083F75;strokeColor=#06315C;fontColor=#ffffff;shape=mxgraph.c4.person2;align=center;metaEdit=1;points=[[0.5,0,0],[1,0.5,0],[1,0.75,0],[0.75,1,0],[0.5,1,0],[0.25,1,0],[0,0.75,0],[0,0.5,0]];resizable=0;" parent="ysQQDH6iQywcjfbesKDz-28" vertex="1">
            <mxGeometry x="30" y="40" width="200" height="180" as="geometry" />
          </mxCell>
        </object>
        <object placeholders="1" c4Name="Template Generator Plugin WebComponent" c4Type="Container" c4Technology="e.g. JavaScript, Angular etc." c4Description="" label="&lt;font style=&quot;font-size: 16px&quot;&gt;&lt;b&gt;%c4Name%&lt;/b&gt;&lt;/font&gt;&lt;div&gt;[%c4Type%:&amp;nbsp;%c4Technology%]&lt;/div&gt;&lt;br&gt;&lt;div&gt;&lt;font style=&quot;font-size: 11px&quot;&gt;&lt;font color=&quot;#E6E6E6&quot;&gt;%c4Description%&lt;/font&gt;&lt;/div&gt;" id="ysQQDH6iQywcjfbesKDz-37">
          <mxCell style="shape=mxgraph.c4.webBrowserContainer2;whiteSpace=wrap;html=1;boundedLbl=1;rounded=0;labelBackgroundColor=none;strokeColor=#118ACD;fillColor=#23A2D9;strokeColor=#118ACD;strokeColor2=#0E7DAD;fontSize=12;fontColor=#ffffff;align=center;metaEdit=1;points=[[0.5,0,0],[1,0.25,0],[1,0.5,0],[1,0.75,0],[0.5,1,0],[0,0.75,0],[0,0.5,0],[0,0.25,0]];resizable=0;" parent="ysQQDH6iQywcjfbesKDz-28" vertex="1">
            <mxGeometry x="500" y="330" width="240" height="160" as="geometry" />
          </mxCell>
        </object>
        <object placeholders="1" c4Name="&#xa;Template Generator Plugin" c4Type="ContainerScopeBoundary" c4Application="Container" label="&lt;font style=&quot;font-size: 16px&quot;&gt;&lt;b&gt;&lt;div style=&quot;text-align: left&quot;&gt;%c4Name%&lt;/div&gt;&lt;/b&gt;&lt;/font&gt;&lt;div style=&quot;text-align: left&quot;&gt;[%c4Application%]&lt;/div&gt;" id="ysQQDH6iQywcjfbesKDz-36">
          <mxCell style="rounded=1;fontSize=11;whiteSpace=wrap;html=1;dashed=1;arcSize=20;fillColor=none;strokeColor=#666666;fontColor=#333333;labelBackgroundColor=none;align=left;verticalAlign=bottom;labelBorderColor=none;spacingTop=0;spacing=10;dashPattern=8 4;metaEdit=1;rotatable=0;perimeter=rectanglePerimeter;noLabel=0;labelPadding=0;allowArrows=0;connectable=0;expand=0;recursiveResize=0;editable=1;pointerEvents=0;absoluteArcSize=1;points=[[0.25,0,0],[0.5,0,0],[0.75,0,0],[1,0.25,0],[1,0.5,0],[1,0.75,0],[0.75,1,0],[0.5,1,0],[0.25,1,0],[0,0.75,0],[0,0.5,0],[0,0.25,0]];" parent="ysQQDH6iQywcjfbesKDz-28" vertex="1">
            <mxGeometry x="30" y="260" width="900" height="370" as="geometry" />
          </mxCell>
        </object>
        <mxCell id="ysQQDH6iQywcjfbesKDz-38" style="edgeStyle=orthogonalEdgeStyle;rounded=0;orthogonalLoop=1;jettySize=auto;html=1;exitX=0.25;exitY=1;exitDx=0;exitDy=0;exitPerimeter=0;entryX=0.249;entryY=0.013;entryDx=0;entryDy=0;entryPerimeter=0;dashed=1;dashPattern=12 12;" parent="ysQQDH6iQywcjfbesKDz-28" target="ysQQDH6iQywcjfbesKDz-37" edge="1">
          <mxGeometry relative="1" as="geometry">
            <mxPoint x="560" y="220" as="sourcePoint" />
            <mxPoint x="560" y="320" as="targetPoint" />
          </mxGeometry>
        </mxCell>
        <mxCell id="ysQQDH6iQywcjfbesKDz-39" value="Loads Plugin" style="edgeLabel;html=1;align=center;verticalAlign=middle;resizable=0;points=[];" parent="ysQQDH6iQywcjfbesKDz-38" vertex="1" connectable="0">
          <mxGeometry x="-0.5542" y="2" relative="1" as="geometry">
            <mxPoint x="-2" y="39" as="offset" />
          </mxGeometry>
        </mxCell>
        <object placeholders="1" c4Name="Local SCL File" c4Type="Container" c4Technology="XML File" c4Description="" label="&lt;font style=&quot;font-size: 16px&quot;&gt;&lt;b&gt;%c4Name%&lt;/b&gt;&lt;/font&gt;&lt;div&gt;[%c4Type%:&amp;nbsp;%c4Technology%]&lt;/div&gt;&lt;br&gt;&lt;div&gt;&lt;font style=&quot;font-size: 11px&quot;&gt;&lt;font color=&quot;#E6E6E6&quot;&gt;%c4Description%&lt;/font&gt;&lt;/div&gt;" id="ysQQDH6iQywcjfbesKDz-40">
          <mxCell style="shape=cylinder3;size=15;whiteSpace=wrap;html=1;boundedLbl=1;rounded=0;labelBackgroundColor=none;fillColor=#23A2D9;fontSize=12;fontColor=#ffffff;align=center;strokeColor=#0E7DAD;metaEdit=1;points=[[0.5,0,0],[1,0.25,0],[1,0.5,0],[1,0.75,0],[0.5,1,0],[0,0.75,0],[0,0.5,0],[0,0.25,0]];resizable=0;" parent="ysQQDH6iQywcjfbesKDz-28" vertex="1">
            <mxGeometry x="880" y="100" width="240" height="120" as="geometry" />
          </mxCell>
        </object>
        <mxCell id="ysQQDH6iQywcjfbesKDz-41" style="edgeStyle=orthogonalEdgeStyle;rounded=0;orthogonalLoop=1;jettySize=auto;html=1;entryX=0;entryY=0.5;entryDx=0;entryDy=0;entryPerimeter=0;exitX=0.998;exitY=0.403;exitDx=0;exitDy=0;exitPerimeter=0;" parent="ysQQDH6iQywcjfbesKDz-28" source="ysQQDH6iQywcjfbesKDz-76" target="ysQQDH6iQywcjfbesKDz-40" edge="1">
          <mxGeometry relative="1" as="geometry">
            <mxPoint x="740" y="160" as="sourcePoint" />
          </mxGeometry>
        </mxCell>
        <mxCell id="ysQQDH6iQywcjfbesKDz-42" value="Reads and write to" style="edgeLabel;html=1;align=center;verticalAlign=middle;resizable=0;points=[];" parent="ysQQDH6iQywcjfbesKDz-41" vertex="1" connectable="0">
          <mxGeometry x="-0.3126" relative="1" as="geometry">
            <mxPoint x="12" as="offset" />
          </mxGeometry>
        </mxCell>
        <mxCell id="ysQQDH6iQywcjfbesKDz-43" style="edgeStyle=orthogonalEdgeStyle;rounded=0;orthogonalLoop=1;jettySize=auto;html=1;entryX=0.75;entryY=1;entryDx=0;entryDy=0;entryPerimeter=0;dashed=1;dashPattern=12 12;" parent="ysQQDH6iQywcjfbesKDz-28" edge="1">
          <mxGeometry relative="1" as="geometry">
            <mxPoint x="680" y="331" as="sourcePoint" />
            <mxPoint x="680" y="220" as="targetPoint" />
          </mxGeometry>
        </mxCell>
        <mxCell id="ysQQDH6iQywcjfbesKDz-44" value="Interacts with Editor API" style="edgeLabel;html=1;align=center;verticalAlign=middle;resizable=0;points=[];" parent="ysQQDH6iQywcjfbesKDz-43" vertex="1" connectable="0">
          <mxGeometry x="-0.1824" relative="1" as="geometry">
            <mxPoint as="offset" />
          </mxGeometry>
        </mxCell>
        <object placeholders="1" c4Name="Data Type Specifications" c4Type="Container" c4Technology="XML File" c4Description="" label="&lt;font style=&quot;font-size: 16px&quot;&gt;&lt;b&gt;%c4Name%&lt;/b&gt;&lt;/font&gt;&lt;div&gt;[%c4Type%:&amp;nbsp;%c4Technology%]&lt;/div&gt;&lt;br&gt;&lt;div&gt;&lt;font style=&quot;font-size: 11px&quot;&gt;&lt;font color=&quot;#E6E6E6&quot;&gt;%c4Description%&lt;/font&gt;&lt;/div&gt;" id="ysQQDH6iQywcjfbesKDz-45">
          <mxCell style="shape=cylinder3;size=15;whiteSpace=wrap;html=1;boundedLbl=1;rounded=0;labelBackgroundColor=none;fillColor=#23A2D9;fontSize=12;fontColor=#ffffff;align=center;strokeColor=#0E7DAD;metaEdit=1;points=[[0.5,0,0],[1,0.25,0],[1,0.5,0],[1,0.75,0],[0.5,1,0],[0,0.75,0],[0,0.5,0],[0,0.25,0]];resizable=0;" parent="ysQQDH6iQywcjfbesKDz-28" vertex="1">
            <mxGeometry x="60" y="340" width="240" height="120" as="geometry" />
          </mxCell>
        </object>
        <mxCell id="ysQQDH6iQywcjfbesKDz-46" style="edgeStyle=orthogonalEdgeStyle;rounded=0;orthogonalLoop=1;jettySize=auto;html=1;exitX=0;exitY=0.5;exitDx=0;exitDy=0;exitPerimeter=0;entryX=1;entryY=0.583;entryDx=0;entryDy=0;entryPerimeter=0;" parent="ysQQDH6iQywcjfbesKDz-28" source="ysQQDH6iQywcjfbesKDz-37" target="ysQQDH6iQywcjfbesKDz-45" edge="1">
          <mxGeometry relative="1" as="geometry" />
        </mxCell>
        <mxCell id="ysQQDH6iQywcjfbesKDz-47" value="accesses" style="edgeLabel;html=1;align=center;verticalAlign=middle;resizable=0;points=[];" parent="ysQQDH6iQywcjfbesKDz-46" vertex="1" connectable="0">
          <mxGeometry x="-0.0579" y="4" relative="1" as="geometry">
            <mxPoint x="-1" y="-4" as="offset" />
          </mxGeometry>
        </mxCell>
        <object placeholders="1" c4Name="Compas Editor WebApp" c4Type="Container" c4Technology="e.g. JavaScript, Angular etc." c4Description="" label="&lt;font style=&quot;font-size: 16px&quot;&gt;&lt;b&gt;%c4Name%&lt;/b&gt;&lt;/font&gt;&lt;div&gt;[%c4Type%:&amp;nbsp;%c4Technology%]&lt;/div&gt;&lt;br&gt;&lt;div&gt;&lt;font style=&quot;font-size: 11px&quot;&gt;&lt;font color=&quot;#E6E6E6&quot;&gt;%c4Description%&lt;/font&gt;&lt;/div&gt;" id="ysQQDH6iQywcjfbesKDz-76">
          <mxCell style="shape=mxgraph.c4.webBrowserContainer2;whiteSpace=wrap;html=1;boundedLbl=1;rounded=0;labelBackgroundColor=none;strokeColor=none;fillColor=light-dark(#8c8496, #1c1b1d);strokeColor=#118ACD;strokeColor2=#0E7DAD;fontSize=12;fontColor=#ffffff;align=center;metaEdit=1;points=[[0.5,0,0],[1,0.25,0],[1,0.5,0],[1,0.75,0],[0.5,1,0],[0,0.75,0],[0,0.5,0],[0,0.25,0]];resizable=0;gradientColor=none;" parent="ysQQDH6iQywcjfbesKDz-28" vertex="1">
            <mxGeometry x="490" y="90" width="240" height="160" as="geometry" />
          </mxCell>
        </object>
        <mxCell id="ysQQDH6iQywcjfbesKDz-66" value="C3: Component Diagram - Template Generator Plugin WebComponent" style="swimlane;whiteSpace=wrap;html=1;" parent="1" vertex="1">
          <mxGeometry x="-4100" y="290" width="2130" height="1040" as="geometry" />
        </mxCell>
        <mxCell id="ysQQDH6iQywcjfbesKDz-92" style="edgeStyle=orthogonalEdgeStyle;rounded=0;orthogonalLoop=1;jettySize=auto;html=1;exitX=0.5;exitY=1;exitDx=0;exitDy=0;exitPerimeter=0;dashed=1;dashPattern=12 12;entryX=0.5;entryY=0;entryDx=0;entryDy=0;entryPerimeter=0;" parent="ysQQDH6iQywcjfbesKDz-66" source="ysQQDH6iQywcjfbesKDz-67" target="ysQQDH6iQywcjfbesKDz-68" edge="1">
          <mxGeometry relative="1" as="geometry">
            <Array as="points">
              <mxPoint x="1020" y="250" />
              <mxPoint x="390" y="250" />
            </Array>
          </mxGeometry>
        </mxCell>
        <mxCell id="ysQQDH6iQywcjfbesKDz-93" style="edgeStyle=orthogonalEdgeStyle;rounded=0;orthogonalLoop=1;jettySize=auto;html=1;dashed=1;dashPattern=12 12;" parent="ysQQDH6iQywcjfbesKDz-66" source="ysQQDH6iQywcjfbesKDz-67" target="ysQQDH6iQywcjfbesKDz-72" edge="1">
          <mxGeometry relative="1" as="geometry">
            <Array as="points">
              <mxPoint x="1020" y="250" />
              <mxPoint x="670" y="250" />
            </Array>
          </mxGeometry>
        </mxCell>
        <mxCell id="ysQQDH6iQywcjfbesKDz-94" style="edgeStyle=orthogonalEdgeStyle;rounded=0;orthogonalLoop=1;jettySize=auto;html=1;exitX=0.5;exitY=1;exitDx=0;exitDy=0;exitPerimeter=0;dashed=1;dashPattern=12 12;entryX=0.5;entryY=0;entryDx=0;entryDy=0;entryPerimeter=0;" parent="ysQQDH6iQywcjfbesKDz-66" source="ysQQDH6iQywcjfbesKDz-67" target="ysQQDH6iQywcjfbesKDz-73" edge="1">
          <mxGeometry relative="1" as="geometry">
            <Array as="points">
              <mxPoint x="1020" y="250" />
              <mxPoint x="1340" y="250" />
            </Array>
          </mxGeometry>
        </mxCell>
        <object placeholders="1" c4Name="[UI] Template Generator Plugin WebComponent" c4Type="Container" c4Technology="e.g. JavaScript, Angular etc." c4Description="" label="&lt;font style=&quot;font-size: 16px&quot;&gt;&lt;b&gt;%c4Name%&lt;/b&gt;&lt;/font&gt;&lt;div&gt;[%c4Type%:&amp;nbsp;%c4Technology%]&lt;/div&gt;&lt;br&gt;&lt;div&gt;&lt;font style=&quot;font-size: 11px&quot;&gt;&lt;font color=&quot;#E6E6E6&quot;&gt;%c4Description%&lt;/font&gt;&lt;/div&gt;" id="ysQQDH6iQywcjfbesKDz-67">
          <mxCell style="shape=mxgraph.c4.webBrowserContainer2;whiteSpace=wrap;html=1;boundedLbl=1;rounded=0;labelBackgroundColor=none;strokeColor=#118ACD;fillColor=#23A2D9;strokeColor=#118ACD;strokeColor2=#0E7DAD;fontSize=12;fontColor=#ffffff;align=center;metaEdit=1;points=[[0.5,0,0],[1,0.25,0],[1,0.5,0],[1,0.75,0],[0.5,1,0],[0,0.75,0],[0,0.5,0],[0,0.25,0]];resizable=0;" parent="ysQQDH6iQywcjfbesKDz-66" vertex="1">
            <mxGeometry x="900" y="50" width="240" height="160" as="geometry" />
          </mxCell>
        </object>
        <mxCell id="GpD7O92ICmlRjzyZ3yUI-9" style="edgeStyle=orthogonalEdgeStyle;rounded=0;orthogonalLoop=1;jettySize=auto;html=1;entryX=0;entryY=0.5;entryDx=0;entryDy=0;entryPerimeter=0;dashed=1;dashPattern=12 12;" parent="ysQQDH6iQywcjfbesKDz-66" source="ysQQDH6iQywcjfbesKDz-68" target="ysQQDH6iQywcjfbesKDz-77" edge="1">
          <mxGeometry relative="1" as="geometry">
            <mxPoint x="450" y="460" as="targetPoint" />
            <Array as="points">
              <mxPoint x="390" y="510" />
            </Array>
          </mxGeometry>
        </mxCell>
        <object placeholders="1" c4Name="LNodeTypeService" c4Type="Component" c4Technology="Service" c4Description="Provides services to manage logical node types." label="&lt;font style=&quot;font-size: 16px&quot;&gt;&lt;b&gt;%c4Name%&lt;/b&gt;&lt;/font&gt;&lt;div&gt;[%c4Type%: %c4Technology%]&lt;/div&gt;&lt;br&gt;&lt;div&gt;&lt;font style=&quot;font-size: 11px&quot;&gt;%c4Description%&lt;/font&gt;&lt;/div&gt;" id="ysQQDH6iQywcjfbesKDz-68">
          <mxCell style="rounded=1;whiteSpace=wrap;html=1;labelBackgroundColor=none;fillColor=#63BEF2;fontColor=#ffffff;align=center;arcSize=6;strokeColor=#2086C9;metaEdit=1;resizable=0;points=[[0.25,0,0],[0.5,0,0],[0.75,0,0],[1,0.25,0],[1,0.5,0],[1,0.75,0],[0.75,1,0],[0.5,1,0],[0.25,1,0],[0,0.75,0],[0,0.5,0],[0,0.25,0]];" parent="ysQQDH6iQywcjfbesKDz-66" vertex="1">
            <mxGeometry x="270" y="275" width="240" height="120" as="geometry" />
          </mxCell>
        </object>
        <object placeholders="1" c4Name="DOTypeService" c4Type="Component" c4Technology="Service" c4Description="Provides services to manage data object types." label="&lt;font style=&quot;font-size: 16px&quot;&gt;&lt;b&gt;%c4Name%&lt;/b&gt;&lt;/font&gt;&lt;div&gt;[%c4Type%: %c4Technology%]&lt;/div&gt;&lt;br&gt;&lt;div&gt;&lt;font style=&quot;font-size: 11px&quot;&gt;%c4Description%&lt;/font&gt;&lt;/div&gt;" id="ysQQDH6iQywcjfbesKDz-72">
          <mxCell style="rounded=1;whiteSpace=wrap;html=1;labelBackgroundColor=none;fillColor=#63BEF2;fontColor=#ffffff;align=center;arcSize=6;strokeColor=#2086C9;metaEdit=1;resizable=0;points=[[0.25,0,0],[0.5,0,0],[0.75,0,0],[1,0.25,0],[1,0.5,0],[1,0.75,0],[0.75,1,0],[0.5,1,0],[0.25,1,0],[0,0.75,0],[0,0.5,0],[0,0.25,0]];" parent="ysQQDH6iQywcjfbesKDz-66" vertex="1">
            <mxGeometry x="560" y="275" width="240" height="120" as="geometry" />
          </mxCell>
        </object>
        <object placeholders="1" c4Name="DATypeService" c4Type="Component" c4Technology="Service" c4Description="Provides services to manage data attribute types." label="&lt;font style=&quot;font-size: 16px&quot;&gt;&lt;b&gt;%c4Name%&lt;/b&gt;&lt;/font&gt;&lt;div&gt;[%c4Type%: %c4Technology%]&lt;/div&gt;&lt;br&gt;&lt;div&gt;&lt;font style=&quot;font-size: 11px&quot;&gt;%c4Description%&lt;/font&gt;&lt;/div&gt;" id="ysQQDH6iQywcjfbesKDz-73">
          <mxCell style="rounded=1;whiteSpace=wrap;html=1;labelBackgroundColor=none;fillColor=#63BEF2;fontColor=#ffffff;align=center;arcSize=6;strokeColor=#2086C9;metaEdit=1;resizable=0;points=[[0.25,0,0],[0.5,0,0],[0.75,0,0],[1,0.25,0],[1,0.5,0],[1,0.75,0],[0.75,1,0],[0.5,1,0],[0.25,1,0],[0,0.75,0],[0,0.5,0],[0,0.25,0]];" parent="ysQQDH6iQywcjfbesKDz-66" vertex="1">
            <mxGeometry x="1220" y="275" width="240" height="120" as="geometry" />
          </mxCell>
        </object>
        <object placeholders="1" c4Name="EnumTypeService" c4Type="Component" c4Technology="Service" c4Description="Provides services to manage enum types." label="&lt;font style=&quot;font-size: 16px&quot;&gt;&lt;b&gt;%c4Name%&lt;/b&gt;&lt;/font&gt;&lt;div&gt;[%c4Type%: %c4Technology%]&lt;/div&gt;&lt;br&gt;&lt;div&gt;&lt;font style=&quot;font-size: 11px&quot;&gt;%c4Description%&lt;/font&gt;&lt;/div&gt;" id="ysQQDH6iQywcjfbesKDz-74">
          <mxCell style="rounded=1;whiteSpace=wrap;html=1;labelBackgroundColor=none;fillColor=#63BEF2;fontColor=#ffffff;align=center;arcSize=6;strokeColor=#2086C9;metaEdit=1;resizable=0;points=[[0.25,0,0],[0.5,0,0],[0.75,0,0],[1,0.25,0],[1,0.5,0],[1,0.75,0],[0.75,1,0],[0.5,1,0],[0.25,1,0],[0,0.75,0],[0,0.5,0],[0,0.25,0]];" parent="ysQQDH6iQywcjfbesKDz-66" vertex="1">
            <mxGeometry x="1530" y="275" width="240" height="120" as="geometry" />
          </mxCell>
        </object>
        <object placeholders="1" c4Name="DataTypeService" c4Type="Component" c4Technology="Service" c4Description="Provides services for resolving, retrieving, and managing data types, it specifications and references." label="&lt;font style=&quot;font-size: 16px&quot;&gt;&lt;b&gt;%c4Name%&lt;/b&gt;&lt;/font&gt;&lt;div&gt;[%c4Type%: %c4Technology%]&lt;/div&gt;&lt;br&gt;&lt;div&gt;&lt;font style=&quot;font-size: 11px&quot;&gt;%c4Description%&lt;/font&gt;&lt;/div&gt;" id="ysQQDH6iQywcjfbesKDz-77">
          <mxCell style="rounded=1;whiteSpace=wrap;html=1;labelBackgroundColor=none;fillColor=#63BEF2;fontColor=#ffffff;align=center;arcSize=6;strokeColor=#2086C9;metaEdit=1;resizable=0;points=[[0.25,0,0],[0.5,0,0],[0.75,0,0],[1,0.25,0],[1,0.5,0],[1,0.75,0],[0.75,1,0],[0.5,1,0],[0.25,1,0],[0,0.75,0],[0,0.5,0],[0,0.25,0]];" parent="ysQQDH6iQywcjfbesKDz-66" vertex="1">
            <mxGeometry x="900" y="450" width="240" height="120" as="geometry" />
          </mxCell>
        </object>
        <mxCell id="ysQQDH6iQywcjfbesKDz-81" style="edgeStyle=orthogonalEdgeStyle;rounded=0;orthogonalLoop=1;jettySize=auto;html=1;dashed=1;dashPattern=12 12;" parent="ysQQDH6iQywcjfbesKDz-66" source="ysQQDH6iQywcjfbesKDz-78" target="ysQQDH6iQywcjfbesKDz-80" edge="1">
          <mxGeometry relative="1" as="geometry" />
        </mxCell>
        <mxCell id="ysQQDH6iQywcjfbesKDz-82" value="write" style="edgeLabel;html=1;align=center;verticalAlign=middle;resizable=0;points=[];" parent="ysQQDH6iQywcjfbesKDz-81" vertex="1" connectable="0">
          <mxGeometry x="0.134" y="-1" relative="1" as="geometry">
            <mxPoint x="16" as="offset" />
          </mxGeometry>
        </mxCell>
        <object placeholders="1" c4Name="DataTypeRepository" c4Type="Component" c4Technology="Repository" c4Description="Manages CRUD operations and type traversal on SCD XML documents and interacts with the Compas via Event API." label="&lt;font style=&quot;font-size: 16px&quot;&gt;&lt;b&gt;%c4Name%&lt;/b&gt;&lt;/font&gt;&lt;div&gt;[%c4Type%: %c4Technology%]&lt;/div&gt;&lt;br&gt;&lt;div&gt;&lt;font style=&quot;font-size: 11px&quot;&gt;%c4Description%&lt;/font&gt;&lt;/div&gt;" id="ysQQDH6iQywcjfbesKDz-78">
          <mxCell style="rounded=1;whiteSpace=wrap;html=1;labelBackgroundColor=none;fillColor=#63BEF2;fontColor=#ffffff;align=center;arcSize=6;strokeColor=#2086C9;metaEdit=1;resizable=0;points=[[0.25,0,0],[0.5,0,0],[0.75,0,0],[1,0.25,0],[1,0.5,0],[1,0.75,0],[0.75,1,0],[0.5,1,0],[0.25,1,0],[0,0.75,0],[0,0.5,0],[0,0.25,0]];" parent="ysQQDH6iQywcjfbesKDz-66" vertex="1">
            <mxGeometry x="900" y="690" width="240" height="120" as="geometry" />
          </mxCell>
        </object>
        <object placeholders="1" c4Name="DataTypeMapper" c4Type="Component" c4Technology="" c4Description="Maps Domain Objects to SCD conform XML Elements and the other way around" label="&lt;font style=&quot;font-size: 16px&quot;&gt;&lt;b&gt;%c4Name%&lt;/b&gt;&lt;/font&gt;&lt;div&gt;[%c4Type%: %c4Technology%]&lt;/div&gt;&lt;br&gt;&lt;div&gt;&lt;font style=&quot;font-size: 11px&quot;&gt;%c4Description%&lt;/font&gt;&lt;/div&gt;" id="ysQQDH6iQywcjfbesKDz-79">
          <mxCell style="rounded=1;whiteSpace=wrap;html=1;labelBackgroundColor=none;fillColor=#63BEF2;fontColor=#ffffff;align=center;arcSize=6;strokeColor=#2086C9;metaEdit=1;resizable=0;points=[[0.25,0,0],[0.5,0,0],[0.75,0,0],[1,0.25,0],[1,0.5,0],[1,0.75,0],[0.75,1,0],[0.5,1,0],[0.25,1,0],[0,0.75,0],[0,0.5,0],[0,0.25,0]];" parent="ysQQDH6iQywcjfbesKDz-66" vertex="1">
            <mxGeometry x="1410" y="690" width="240" height="120" as="geometry" />
          </mxCell>
        </object>
        <object placeholders="1" c4Name="SCLEditorAPI" c4Type="Component" c4Technology="e.g. Spring Service" c4Description="Description of component role/responsibility." label="&lt;font style=&quot;font-size: 16px&quot;&gt;&lt;b&gt;%c4Name%&lt;/b&gt;&lt;/font&gt;&lt;div&gt;[%c4Type%: %c4Technology%]&lt;/div&gt;&lt;br&gt;&lt;div&gt;&lt;font style=&quot;font-size: 11px&quot;&gt;%c4Description%&lt;/font&gt;&lt;/div&gt;" id="ysQQDH6iQywcjfbesKDz-80">
          <mxCell style="rounded=1;whiteSpace=wrap;html=1;labelBackgroundColor=none;fillColor=#63BEF2;fontColor=#ffffff;align=center;arcSize=6;strokeColor=#2086C9;metaEdit=1;resizable=0;points=[[0.25,0,0],[0.5,0,0],[0.75,0,0],[1,0.25,0],[1,0.5,0],[1,0.75,0],[0.75,1,0],[0.5,1,0],[0.25,1,0],[0,0.75,0],[0,0.5,0],[0,0.25,0]];" parent="ysQQDH6iQywcjfbesKDz-66" vertex="1">
            <mxGeometry x="735" y="869" width="240" height="120" as="geometry" />
          </mxCell>
        </object>
        <mxCell id="ysQQDH6iQywcjfbesKDz-84" style="edgeStyle=orthogonalEdgeStyle;rounded=0;orthogonalLoop=1;jettySize=auto;html=1;entryX=0;entryY=0.5;entryDx=0;entryDy=0;entryPerimeter=0;dashed=1;dashPattern=12 12;" parent="ysQQDH6iQywcjfbesKDz-66" source="ysQQDH6iQywcjfbesKDz-78" target="ysQQDH6iQywcjfbesKDz-79" edge="1">
          <mxGeometry relative="1" as="geometry" />
        </mxCell>
        <mxCell id="ysQQDH6iQywcjfbesKDz-85" value="uses to map&lt;div&gt;to/from Domain to HTMLElement&lt;/div&gt;" style="edgeLabel;html=1;align=center;verticalAlign=middle;resizable=0;points=[];" parent="ysQQDH6iQywcjfbesKDz-84" vertex="1" connectable="0">
          <mxGeometry x="-0.0563" y="-2" relative="1" as="geometry">
            <mxPoint as="offset" />
          </mxGeometry>
        </mxCell>
        <object placeholders="1" c4Name="TypeTraverser" c4Type="Component" c4Technology="Service" c4Description="Traverses over type references" label="&lt;font style=&quot;font-size: 16px&quot;&gt;&lt;b&gt;%c4Name%&lt;/b&gt;&lt;/font&gt;&lt;div&gt;[%c4Type%: %c4Technology%]&lt;/div&gt;&lt;br&gt;&lt;div&gt;&lt;font style=&quot;font-size: 11px&quot;&gt;%c4Description%&lt;/font&gt;&lt;/div&gt;" id="ysQQDH6iQywcjfbesKDz-86">
          <mxCell style="rounded=1;whiteSpace=wrap;html=1;labelBackgroundColor=none;fillColor=#63BEF2;fontColor=#ffffff;align=center;arcSize=6;strokeColor=#2086C9;metaEdit=1;resizable=0;points=[[0.25,0,0],[0.5,0,0],[0.75,0,0],[1,0.25,0],[1,0.5,0],[1,0.75,0],[0.75,1,0],[0.5,1,0],[0.25,1,0],[0,0.75,0],[0,0.5,0],[0,0.25,0]];" parent="ysQQDH6iQywcjfbesKDz-66" vertex="1">
            <mxGeometry x="505" y="690" width="240" height="120" as="geometry" />
          </mxCell>
        </object>
        <mxCell id="ysQQDH6iQywcjfbesKDz-87" style="edgeStyle=orthogonalEdgeStyle;rounded=0;orthogonalLoop=1;jettySize=auto;html=1;entryX=1;entryY=0.5;entryDx=0;entryDy=0;entryPerimeter=0;dashed=1;dashPattern=12 12;" parent="ysQQDH6iQywcjfbesKDz-66" source="ysQQDH6iQywcjfbesKDz-78" target="ysQQDH6iQywcjfbesKDz-86" edge="1">
          <mxGeometry relative="1" as="geometry" />
        </mxCell>
        <mxCell id="ysQQDH6iQywcjfbesKDz-88" value="uses to resolve&amp;nbsp;&lt;div&gt;type references&lt;/div&gt;" style="edgeLabel;html=1;align=center;verticalAlign=middle;resizable=0;points=[];" parent="ysQQDH6iQywcjfbesKDz-87" vertex="1" connectable="0">
          <mxGeometry x="0.09" y="3" relative="1" as="geometry">
            <mxPoint as="offset" />
          </mxGeometry>
        </mxCell>
        <object placeholders="1" c4Name="SCL Document" c4Type="Container" c4Technology="Javascript XMLDocument" c4Description="" label="&lt;font style=&quot;font-size: 16px&quot;&gt;&lt;b&gt;%c4Name%&lt;/b&gt;&lt;/font&gt;&lt;div&gt;[%c4Type%:&amp;nbsp;%c4Technology%]&lt;/div&gt;&lt;br&gt;&lt;div&gt;&lt;font style=&quot;font-size: 11px&quot;&gt;&lt;font color=&quot;#E6E6E6&quot;&gt;%c4Description%&lt;/font&gt;&lt;/div&gt;" id="ysQQDH6iQywcjfbesKDz-89">
          <mxCell style="shape=cylinder3;size=15;whiteSpace=wrap;html=1;boundedLbl=1;rounded=0;labelBackgroundColor=none;fillColor=#23A2D9;fontSize=12;fontColor=#ffffff;align=center;strokeColor=#0E7DAD;metaEdit=1;points=[[0.5,0,0],[1,0.25,0],[1,0.5,0],[1,0.75,0],[0.5,1,0],[0,0.75,0],[0,0.5,0],[0,0.25,0]];resizable=0;" parent="ysQQDH6iQywcjfbesKDz-66" vertex="1">
            <mxGeometry x="1170" y="869" width="240" height="120" as="geometry" />
          </mxCell>
        </object>
        <mxCell id="ysQQDH6iQywcjfbesKDz-90" style="edgeStyle=orthogonalEdgeStyle;rounded=0;orthogonalLoop=1;jettySize=auto;html=1;exitX=0.5;exitY=1;exitDx=0;exitDy=0;exitPerimeter=0;entryX=0.5;entryY=0;entryDx=0;entryDy=0;entryPerimeter=0;dashed=1;dashPattern=12 12;" parent="ysQQDH6iQywcjfbesKDz-66" source="ysQQDH6iQywcjfbesKDz-78" target="ysQQDH6iQywcjfbesKDz-89" edge="1">
          <mxGeometry relative="1" as="geometry" />
        </mxCell>
        <mxCell id="ysQQDH6iQywcjfbesKDz-91" value="reads from XMLDocument&lt;div&gt;that gets injected into the Plugin&lt;/div&gt;&lt;div&gt;by the Editor&lt;/div&gt;" style="edgeLabel;html=1;align=center;verticalAlign=middle;resizable=0;points=[];" parent="ysQQDH6iQywcjfbesKDz-90" vertex="1" connectable="0">
          <mxGeometry x="-0.038" y="1" relative="1" as="geometry">
            <mxPoint as="offset" />
          </mxGeometry>
        </mxCell>
        <mxCell id="ysQQDH6iQywcjfbesKDz-98" style="edgeStyle=orthogonalEdgeStyle;rounded=0;orthogonalLoop=1;jettySize=auto;html=1;exitX=0.5;exitY=1;exitDx=0;exitDy=0;exitPerimeter=0;entryX=0.5;entryY=0;entryDx=0;entryDy=0;entryPerimeter=0;dashed=1;dashPattern=12 12;" parent="ysQQDH6iQywcjfbesKDz-66" source="ysQQDH6iQywcjfbesKDz-67" target="ysQQDH6iQywcjfbesKDz-74" edge="1">
          <mxGeometry relative="1" as="geometry">
            <Array as="points">
              <mxPoint x="1020" y="250" />
              <mxPoint x="1650" y="250" />
            </Array>
          </mxGeometry>
        </mxCell>
        <mxCell id="GpD7O92ICmlRjzyZ3yUI-1" style="edgeStyle=orthogonalEdgeStyle;rounded=0;orthogonalLoop=1;jettySize=auto;html=1;entryX=0.5;entryY=0;entryDx=0;entryDy=0;entryPerimeter=0;dashed=1;dashPattern=12 12;" parent="ysQQDH6iQywcjfbesKDz-66" source="ysQQDH6iQywcjfbesKDz-77" target="ysQQDH6iQywcjfbesKDz-78" edge="1">
          <mxGeometry relative="1" as="geometry" />
        </mxCell>
        <mxCell id="4jysYp1MtYF_WMdAK2N5-2" value="reads and write types" style="edgeLabel;html=1;align=center;verticalAlign=middle;resizable=0;points=[];" parent="GpD7O92ICmlRjzyZ3yUI-1" vertex="1" connectable="0">
          <mxGeometry x="-0.1333" y="3" relative="1" as="geometry">
            <mxPoint as="offset" />
          </mxGeometry>
        </mxCell>
        <object placeholders="1" c4Name="TypeSpecificationService" c4Type="Component" c4Technology="Service" c4Description="Provides specifications for a given data type instance type (e.g. for DOType cdc=SPS)" label="&lt;font style=&quot;font-size: 16px&quot;&gt;&lt;b&gt;%c4Name%&lt;/b&gt;&lt;/font&gt;&lt;div&gt;[%c4Type%: %c4Technology%]&lt;/div&gt;&lt;br&gt;&lt;div&gt;&lt;font style=&quot;font-size: 11px&quot;&gt;%c4Description%&lt;/font&gt;&lt;/div&gt;" id="GpD7O92ICmlRjzyZ3yUI-2">
          <mxCell style="rounded=1;whiteSpace=wrap;html=1;labelBackgroundColor=none;fillColor=#63BEF2;fontColor=#ffffff;align=center;arcSize=6;strokeColor=#2086C9;metaEdit=1;resizable=0;points=[[0.25,0,0],[0.5,0,0],[0.75,0,0],[1,0.25,0],[1,0.5,0],[1,0.75,0],[0.75,1,0],[0.5,1,0],[0.25,1,0],[0,0.75,0],[0,0.5,0],[0,0.25,0]];" parent="ysQQDH6iQywcjfbesKDz-66" vertex="1">
            <mxGeometry x="510" y="540" width="240" height="120" as="geometry" />
          </mxCell>
        </object>
        <mxCell id="GpD7O92ICmlRjzyZ3yUI-3" style="edgeStyle=orthogonalEdgeStyle;rounded=0;orthogonalLoop=1;jettySize=auto;html=1;entryX=1;entryY=0.5;entryDx=0;entryDy=0;entryPerimeter=0;dashed=1;dashPattern=12 12;" parent="ysQQDH6iQywcjfbesKDz-66" source="ysQQDH6iQywcjfbesKDz-77" target="GpD7O92ICmlRjzyZ3yUI-2" edge="1">
          <mxGeometry relative="1" as="geometry">
            <Array as="points">
              <mxPoint x="825" y="560" />
              <mxPoint x="825" y="600" />
            </Array>
          </mxGeometry>
        </mxCell>
        <mxCell id="4jysYp1MtYF_WMdAK2N5-1" value="uses type specifications&lt;div&gt;to add metadata to types&lt;/div&gt;" style="edgeLabel;html=1;align=center;verticalAlign=middle;resizable=0;points=[];" parent="GpD7O92ICmlRjzyZ3yUI-3" vertex="1" connectable="0">
          <mxGeometry x="-0.0632" y="1" relative="1" as="geometry">
            <mxPoint as="offset" />
          </mxGeometry>
        </mxCell>
        <mxCell id="GpD7O92ICmlRjzyZ3yUI-6" style="edgeStyle=orthogonalEdgeStyle;rounded=0;orthogonalLoop=1;jettySize=auto;html=1;entryX=1;entryY=0.5;entryDx=0;entryDy=0;entryPerimeter=0;dashed=1;dashPattern=12 12;" parent="ysQQDH6iQywcjfbesKDz-66" source="ysQQDH6iQywcjfbesKDz-74" target="ysQQDH6iQywcjfbesKDz-77" edge="1">
          <mxGeometry relative="1" as="geometry">
            <Array as="points">
              <mxPoint x="1660" y="510" />
            </Array>
          </mxGeometry>
        </mxCell>
        <mxCell id="GpD7O92ICmlRjzyZ3yUI-7" style="edgeStyle=orthogonalEdgeStyle;rounded=0;orthogonalLoop=1;jettySize=auto;html=1;entryX=0.25;entryY=0;entryDx=0;entryDy=0;entryPerimeter=0;dashed=1;dashPattern=12 12;" parent="ysQQDH6iQywcjfbesKDz-66" source="ysQQDH6iQywcjfbesKDz-72" target="ysQQDH6iQywcjfbesKDz-77" edge="1">
          <mxGeometry relative="1" as="geometry" />
        </mxCell>
        <mxCell id="GpD7O92ICmlRjzyZ3yUI-8" style="edgeStyle=orthogonalEdgeStyle;rounded=0;orthogonalLoop=1;jettySize=auto;html=1;entryX=0.75;entryY=0;entryDx=0;entryDy=0;entryPerimeter=0;dashed=1;dashPattern=12 12;" parent="ysQQDH6iQywcjfbesKDz-66" source="ysQQDH6iQywcjfbesKDz-73" target="ysQQDH6iQywcjfbesKDz-77" edge="1">
          <mxGeometry relative="1" as="geometry" />
        </mxCell>
        <mxCell id="GpD7O92ICmlRjzyZ3yUI-12" style="edgeStyle=orthogonalEdgeStyle;rounded=0;orthogonalLoop=1;jettySize=auto;html=1;dashed=1;dashPattern=12 12;" parent="ysQQDH6iQywcjfbesKDz-66" source="GpD7O92ICmlRjzyZ3yUI-10" target="GpD7O92ICmlRjzyZ3yUI-11" edge="1">
          <mxGeometry relative="1" as="geometry" />
        </mxCell>
        <mxCell id="GpD7O92ICmlRjzyZ3yUI-13" value="reads type specifications" style="edgeLabel;html=1;align=center;verticalAlign=middle;resizable=0;points=[];" parent="GpD7O92ICmlRjzyZ3yUI-12" vertex="1" connectable="0">
          <mxGeometry x="-0.2528" relative="1" as="geometry">
            <mxPoint x="-1" y="-1" as="offset" />
          </mxGeometry>
        </mxCell>
        <object placeholders="1" c4Name="XMLTypeSpecificationParser" c4Type="Component" c4Technology="Service" c4Description="Parses type specification nsd file to ObjectSpecification object." label="&lt;font style=&quot;font-size: 16px&quot;&gt;&lt;b&gt;%c4Name%&lt;/b&gt;&lt;/font&gt;&lt;div&gt;[%c4Type%: %c4Technology%]&lt;/div&gt;&lt;br&gt;&lt;div&gt;&lt;font style=&quot;font-size: 11px&quot;&gt;%c4Description%&lt;/font&gt;&lt;/div&gt;" id="GpD7O92ICmlRjzyZ3yUI-10">
          <mxCell style="rounded=1;whiteSpace=wrap;html=1;labelBackgroundColor=none;fillColor=#63BEF2;fontColor=#ffffff;align=center;arcSize=6;strokeColor=#2086C9;metaEdit=1;resizable=0;points=[[0.25,0,0],[0.5,0,0],[0.75,0,0],[1,0.25,0],[1,0.5,0],[1,0.75,0],[0.75,1,0],[0.5,1,0],[0.25,1,0],[0,0.75,0],[0,0.5,0],[0,0.25,0]];" parent="ysQQDH6iQywcjfbesKDz-66" vertex="1">
            <mxGeometry x="150" y="540" width="240" height="120" as="geometry" />
          </mxCell>
        </object>
        <object placeholders="1" c4Name="Data Type Specifications" c4Type="Container" c4Technology="XML File" c4Description="" label="&lt;font style=&quot;font-size: 16px&quot;&gt;&lt;b&gt;%c4Name%&lt;/b&gt;&lt;/font&gt;&lt;div&gt;[%c4Type%:&amp;nbsp;%c4Technology%]&lt;/div&gt;&lt;br&gt;&lt;div&gt;&lt;font style=&quot;font-size: 11px&quot;&gt;&lt;font color=&quot;#E6E6E6&quot;&gt;%c4Description%&lt;/font&gt;&lt;/div&gt;" id="GpD7O92ICmlRjzyZ3yUI-11">
          <mxCell style="shape=cylinder3;size=15;whiteSpace=wrap;html=1;boundedLbl=1;rounded=0;labelBackgroundColor=none;fillColor=#23A2D9;fontSize=12;fontColor=#ffffff;align=center;strokeColor=#0E7DAD;metaEdit=1;points=[[0.5,0,0],[1,0.25,0],[1,0.5,0],[1,0.75,0],[0.5,1,0],[0,0.75,0],[0,0.5,0],[0,0.25,0]];resizable=0;" parent="ysQQDH6iQywcjfbesKDz-66" vertex="1">
            <mxGeometry x="150" y="749" width="240" height="120" as="geometry" />
          </mxCell>
        </object>
        <mxCell id="GpD7O92ICmlRjzyZ3yUI-14" style="edgeStyle=orthogonalEdgeStyle;rounded=0;orthogonalLoop=1;jettySize=auto;html=1;entryX=1;entryY=0.5;entryDx=0;entryDy=0;entryPerimeter=0;dashed=1;dashPattern=12 12;" parent="ysQQDH6iQywcjfbesKDz-66" source="GpD7O92ICmlRjzyZ3yUI-2" target="GpD7O92ICmlRjzyZ3yUI-10" edge="1">
          <mxGeometry relative="1" as="geometry" />
        </mxCell>
        <mxCell id="GpD7O92ICmlRjzyZ3yUI-15" value="gets type specs" style="edgeLabel;html=1;align=center;verticalAlign=middle;resizable=0;points=[];" parent="GpD7O92ICmlRjzyZ3yUI-14" vertex="1" connectable="0">
          <mxGeometry x="0.175" y="2" relative="1" as="geometry">
            <mxPoint x="11" y="-12" as="offset" />
          </mxGeometry>
        </mxCell>
        <mxCell id="ysQQDH6iQywcjfbesKDz-99" value="Legend" style="shape=table;startSize=0;container=1;collapsible=0;childLayout=tableLayout;fontSize=16;align=left;verticalAlign=top;fillColor=none;strokeColor=none;fontColor=#4D4D4D;fontStyle=1;spacingLeft=6;spacing=0;resizable=0;" parent="1" vertex="1">
          <mxGeometry x="-1950" y="-400" width="180" height="210" as="geometry" />
        </mxCell>
        <mxCell id="ysQQDH6iQywcjfbesKDz-100" value="" style="shape=tableRow;horizontal=0;startSize=0;swimlaneHead=0;swimlaneBody=0;strokeColor=inherit;top=0;left=0;bottom=0;right=0;collapsible=0;dropTarget=0;fillColor=none;points=[[0,0.5],[1,0.5]];portConstraint=eastwest;fontSize=12;" parent="ysQQDH6iQywcjfbesKDz-99" vertex="1">
          <mxGeometry width="180" height="35" as="geometry" />
        </mxCell>
        <mxCell id="ysQQDH6iQywcjfbesKDz-101" value="Person" style="shape=partialRectangle;html=1;whiteSpace=wrap;connectable=0;strokeColor=inherit;overflow=hidden;fillColor=#1E4074;top=0;left=0;bottom=0;right=0;pointerEvents=1;fontSize=12;align=left;fontColor=#FFFFFF;gradientColor=none;spacingLeft=10;spacingRight=4;" parent="ysQQDH6iQywcjfbesKDz-100" vertex="1">
          <mxGeometry width="180" height="35" as="geometry">
            <mxRectangle width="180" height="35" as="alternateBounds" />
          </mxGeometry>
        </mxCell>
        <mxCell id="ysQQDH6iQywcjfbesKDz-102" value="" style="shape=tableRow;horizontal=0;startSize=0;swimlaneHead=0;swimlaneBody=0;strokeColor=inherit;top=0;left=0;bottom=0;right=0;collapsible=0;dropTarget=0;fillColor=none;points=[[0,0.5],[1,0.5]];portConstraint=eastwest;fontSize=12;" parent="ysQQDH6iQywcjfbesKDz-99" vertex="1">
          <mxGeometry y="35" width="180" height="35" as="geometry" />
        </mxCell>
        <mxCell id="ysQQDH6iQywcjfbesKDz-103" value="Software System" style="shape=partialRectangle;html=1;whiteSpace=wrap;connectable=0;strokeColor=inherit;overflow=hidden;fillColor=#3162AF;top=0;left=0;bottom=0;right=0;pointerEvents=1;fontSize=12;align=left;fontColor=#FFFFFF;gradientColor=none;spacingLeft=10;spacingRight=4;" parent="ysQQDH6iQywcjfbesKDz-102" vertex="1">
          <mxGeometry width="180" height="35" as="geometry">
            <mxRectangle width="180" height="35" as="alternateBounds" />
          </mxGeometry>
        </mxCell>
        <mxCell id="ysQQDH6iQywcjfbesKDz-104" value="" style="shape=tableRow;horizontal=0;startSize=0;swimlaneHead=0;swimlaneBody=0;strokeColor=inherit;top=0;left=0;bottom=0;right=0;collapsible=0;dropTarget=0;fillColor=none;points=[[0,0.5],[1,0.5]];portConstraint=eastwest;fontSize=12;" parent="ysQQDH6iQywcjfbesKDz-99" vertex="1">
          <mxGeometry y="70" width="180" height="35" as="geometry" />
        </mxCell>
        <mxCell id="ysQQDH6iQywcjfbesKDz-105" value="Container" style="shape=partialRectangle;html=1;whiteSpace=wrap;connectable=0;strokeColor=inherit;overflow=hidden;fillColor=#52a2d8;top=0;left=0;bottom=0;right=0;pointerEvents=1;fontSize=12;align=left;fontColor=#FFFFFF;gradientColor=none;spacingLeft=10;spacingRight=4;" parent="ysQQDH6iQywcjfbesKDz-104" vertex="1">
          <mxGeometry width="180" height="35" as="geometry">
            <mxRectangle width="180" height="35" as="alternateBounds" />
          </mxGeometry>
        </mxCell>
        <mxCell id="ysQQDH6iQywcjfbesKDz-106" value="" style="shape=tableRow;horizontal=0;startSize=0;swimlaneHead=0;swimlaneBody=0;strokeColor=inherit;top=0;left=0;bottom=0;right=0;collapsible=0;dropTarget=0;fillColor=none;points=[[0,0.5],[1,0.5]];portConstraint=eastwest;fontSize=12;" parent="ysQQDH6iQywcjfbesKDz-99" vertex="1">
          <mxGeometry y="105" width="180" height="35" as="geometry" />
        </mxCell>
        <mxCell id="ysQQDH6iQywcjfbesKDz-107" value="Component" style="shape=partialRectangle;html=1;whiteSpace=wrap;connectable=0;strokeColor=inherit;overflow=hidden;fillColor=#7dbef2;top=0;left=0;bottom=0;right=0;pointerEvents=1;fontSize=12;align=left;fontColor=#FFFFFF;gradientColor=none;spacingLeft=10;spacingRight=4;" parent="ysQQDH6iQywcjfbesKDz-106" vertex="1">
          <mxGeometry width="180" height="35" as="geometry">
            <mxRectangle width="180" height="35" as="alternateBounds" />
          </mxGeometry>
        </mxCell>
        <mxCell id="ysQQDH6iQywcjfbesKDz-108" value="" style="shape=tableRow;horizontal=0;startSize=0;swimlaneHead=0;swimlaneBody=0;strokeColor=inherit;top=0;left=0;bottom=0;right=0;collapsible=0;dropTarget=0;fillColor=none;points=[[0,0.5],[1,0.5]];portConstraint=eastwest;fontSize=12;" parent="ysQQDH6iQywcjfbesKDz-99" vertex="1">
          <mxGeometry y="140" width="180" height="35" as="geometry" />
        </mxCell>
        <mxCell id="ysQQDH6iQywcjfbesKDz-109" value="External Person" style="shape=partialRectangle;html=1;whiteSpace=wrap;connectable=0;strokeColor=inherit;overflow=hidden;fillColor=#6b6477;top=0;left=0;bottom=0;right=0;pointerEvents=1;fontSize=12;align=left;fontColor=#FFFFFF;gradientColor=none;spacingLeft=10;spacingRight=4;" parent="ysQQDH6iQywcjfbesKDz-108" vertex="1">
          <mxGeometry width="180" height="35" as="geometry">
            <mxRectangle width="180" height="35" as="alternateBounds" />
          </mxGeometry>
        </mxCell>
        <mxCell id="ysQQDH6iQywcjfbesKDz-110" value="" style="shape=tableRow;horizontal=0;startSize=0;swimlaneHead=0;swimlaneBody=0;strokeColor=inherit;top=0;left=0;bottom=0;right=0;collapsible=0;dropTarget=0;fillColor=none;points=[[0,0.5],[1,0.5]];portConstraint=eastwest;fontSize=12;" parent="ysQQDH6iQywcjfbesKDz-99" vertex="1">
          <mxGeometry y="175" width="180" height="35" as="geometry" />
        </mxCell>
        <mxCell id="ysQQDH6iQywcjfbesKDz-111" value="External Software System" style="shape=partialRectangle;html=1;whiteSpace=wrap;connectable=0;strokeColor=inherit;overflow=hidden;fillColor=#8b8496;top=0;left=0;bottom=0;right=0;pointerEvents=1;fontSize=12;align=left;fontColor=#FFFFFF;gradientColor=none;spacingLeft=10;spacingRight=4;" parent="ysQQDH6iQywcjfbesKDz-110" vertex="1">
          <mxGeometry width="180" height="35" as="geometry">
            <mxRectangle width="180" height="35" as="alternateBounds" />
          </mxGeometry>
        </mxCell>
      </root>
    </mxGraphModel>
  </diagram>
</mxfile>
